<?xml version="1.0" encoding="utf-8"?>
<svg xmlns="http://www.w3.org/2000/svg" viewBox="0 0 500 500">
  <g id="Layer_1" transform="matrix(1, 0, 0, 1, 251.662079, 56.735092)">
    <g transform="matrix(2.989907, 0, 0, 2.989907, -324.006714, -124.20385)" style="">
      <path class="st17" d="M107.5,78.4c6.8,0,13,2.5,17.8,6.5c2.6,2.2,6.3,2.2,9,0.2c3.8-2.8,4-8.5,0.4-11.5 c-7.7-6.5-17.8-10.3-28.8-9.9c-22.6,0.8-40.8,19.7-40.8,42.3c0,23.5,19,42.5,42.4,42.5c9.3,0,17.9-3,24.9-8.1 c4-2.9,4-8.9,0.1-11.8v0c-2.6-1.9-6.1-2-8.6-0.1c-4.6,3.3-10.2,5.3-16.3,5.3c-15.3,0-27.7-12.4-27.7-27.7 C79.8,90.9,92.2,78.4,107.5,78.4z" style="stroke: rgb(0, 0, 0); paint-order: fill;"/>
      <path class="st17" d="M174.7,103.5L174.7,103.5c-1.5-37.2-33.2-66.7-71.1-64.4C69.5,41,42,68.8,40.4,102.9 c-1.8,38.5,29,70.5,67.1,70.5c17.5,0,34.2-6.9,46.7-18.9c3.3-3.1,2.8-8.5-0.8-11.1c-2.8-2.1-6.8-1.9-9.4,0.6 c-9.7,9.4-22.8,14.8-36.5,14.8c-30.3,0-54.7-25.8-52.4-56.5c1.9-25.7,22.6-46.4,48.3-48.3c30.8-2.3,56.6,22.1,56.6,52.4v38.3v3.6 v18.1c0,4.1,3.3,7.4,7.4,7.4l0,0c4.1,0,7.4-3.3,7.4-7.4v-60C174.7,105.2,174.7,104.4,174.7,103.5z" style="stroke: rgb(0, 0, 0); paint-order: fill;"/>
    </g>
  </g>
</svg>